<svg xmlns="http://www.w3.org/2000/svg" viewBox="0 0 40 40">
  <defs>
    <clipPath id="us-flag-mask">
      <circle cx="20" cy="20" r="18" />
    </clipPath>
  </defs>
  <g clip-path="url(#us-flag-mask)">
    <rect x="2" y="2" width="36" height="36" fill="#F4F4F0" />
    <rect x="2" y="2.0000" width="36" height="2.7692" fill="#B62432" />
    <rect x="2" y="7.5385" width="36" height="2.7692" fill="#B62432" />
    <rect x="2" y="13.0769" width="36" height="2.7692" fill="#B62432" />
    <rect x="2" y="18.6154" width="36" height="2.7692" fill="#B62432" />
    <rect x="2" y="24.1538" width="36" height="2.7692" fill="#B62432" />
    <rect x="2" y="29.6923" width="36" height="2.7692" fill="#B62432" />
    <rect x="2" y="35.2308" width="36" height="2.7692" fill="#B62432" />
    <rect x="2" y="2" width="20.5" height="19.3846" rx="1.6" fill="#0B3B8E" />
    <g fill="#FDF3E8">
      <circle cx="3.708" cy="3.077" r="0.65" />
      <circle cx="7.125" cy="3.077" r="0.65" />
      <circle cx="10.542" cy="3.077" r="0.65" />
      <circle cx="13.958" cy="3.077" r="0.65" />
      <circle cx="17.375" cy="3.077" r="0.65" />
      <circle cx="20.792" cy="3.077" r="0.65" />
      <circle cx="6.100" cy="5.231" r="0.65" />
      <circle cx="10.200" cy="5.231" r="0.65" />
      <circle cx="14.300" cy="5.231" r="0.65" />
      <circle cx="18.400" cy="5.231" r="0.65" />
      <circle cx="22.500" cy="5.231" r="0.65" />
      <circle cx="3.708" cy="7.385" r="0.65" />
      <circle cx="7.125" cy="7.385" r="0.65" />
      <circle cx="10.542" cy="7.385" r="0.65" />
      <circle cx="13.958" cy="7.385" r="0.65" />
      <circle cx="17.375" cy="7.385" r="0.65" />
      <circle cx="20.792" cy="7.385" r="0.65" />
      <circle cx="6.100" cy="9.538" r="0.65" />
      <circle cx="10.200" cy="9.538" r="0.65" />
      <circle cx="14.300" cy="9.538" r="0.65" />
      <circle cx="18.400" cy="9.538" r="0.65" />
      <circle cx="22.500" cy="9.538" r="0.65" />
      <circle cx="3.708" cy="11.692" r="0.65" />
      <circle cx="7.125" cy="11.692" r="0.65" />
      <circle cx="10.542" cy="11.692" r="0.65" />
      <circle cx="13.958" cy="11.692" r="0.65" />
      <circle cx="17.375" cy="11.692" r="0.65" />
      <circle cx="20.792" cy="11.692" r="0.65" />
      <circle cx="6.100" cy="13.846" r="0.65" />
      <circle cx="10.200" cy="13.846" r="0.65" />
      <circle cx="14.300" cy="13.846" r="0.65" />
      <circle cx="18.400" cy="13.846" r="0.65" />
      <circle cx="22.500" cy="13.846" r="0.65" />
      <circle cx="3.708" cy="16.000" r="0.65" />
      <circle cx="7.125" cy="16.000" r="0.65" />
      <circle cx="10.542" cy="16.000" r="0.65" />
      <circle cx="13.958" cy="16.000" r="0.65" />
      <circle cx="17.375" cy="16.000" r="0.65" />
      <circle cx="20.792" cy="16.000" r="0.65" />
      <circle cx="6.100" cy="18.154" r="0.65" />
      <circle cx="10.200" cy="18.154" r="0.65" />
      <circle cx="14.300" cy="18.154" r="0.65" />
      <circle cx="18.400" cy="18.154" r="0.65" />
      <circle cx="22.500" cy="18.154" r="0.65" />
      <circle cx="3.708" cy="20.308" r="0.65" />
      <circle cx="7.125" cy="20.308" r="0.65" />
      <circle cx="10.542" cy="20.308" r="0.65" />
      <circle cx="13.958" cy="20.308" r="0.65" />
      <circle cx="17.375" cy="20.308" r="0.65" />
      <circle cx="20.792" cy="20.308" r="0.65" />
    </g>
  </g>
</svg>
