<svg xmlns="http://www.w3.org/2000/svg" viewBox="0 0 40 40">
  <defs>
    <clipPath id="uz-flag-mask">
      <circle cx="20" cy="20" r="18" />
    </clipPath>
  </defs>
  <g clip-path="url(#uz-flag-mask)">
    <rect x="2" y="2" width="36" height="14" fill="#00A0C6" />
    <rect x="2" y="16" width="36" height="1.2" fill="#D73648" />
    <rect x="2" y="17.2" width="36" height="10" fill="#F4F4F0" />
    <rect x="2" y="27.2" width="36" height="1.2" fill="#D73648" />
    <rect x="2" y="28.4" width="36" height="9.6" fill="#1FAA5C" />
    <circle cx="10" cy="9" r="4.6" fill="#FDF3E8" />
    <circle cx="11.6" cy="9" r="3.5" fill="#00A0C6" />
    <g fill="#FDF3E8">
      <circle cx="18" cy="6.5" r="0.9" />
      <circle cx="22" cy="6.5" r="0.9" />
      <circle cx="26" cy="6.5" r="0.9" />
      <circle cx="30" cy="6.5" r="0.9" />
      <circle cx="18" cy="10" r="0.9" />
      <circle cx="22" cy="10" r="0.9" />
      <circle cx="26" cy="10" r="0.9" />
      <circle cx="30" cy="10" r="0.9" />
      <circle cx="18" cy="13.5" r="0.9" />
      <circle cx="22" cy="13.5" r="0.9" />
      <circle cx="26" cy="13.5" r="0.9" />
      <circle cx="30" cy="13.5" r="0.9" />
    </g>
  </g>
</svg>
