<svg xmlns="http://www.w3.org/2000/svg" width="120" height="120" viewBox="0 0 120 120"><defs><linearGradient id="a" x1="0" x2="1" y1="0" y2="1"><stop offset="0" stop-color="#8a5bff"/><stop offset="1" stop-color="#ff5ddd"/></linearGradient></defs><rect width="96" height="96" x="12" y="12" fill="url(#a)" rx="24"/><path fill="#0b0b0f" d="M60 32c-15 0-26 10.5-26 25.2C34 71.3 44 80 56.9 81.8v6c0 1.6 1.3 2.9 2.9 2.9h1.6c1.6 0 2.9-1.3 2.9-2.9V81c12.4-1.5 21.8-10.7 21.8-23.8C86 42.9 74.6 32 60 32m0 12.4c8 0 14.2 5.9 14.2 14.1 0 8.1-6.2 14.1-14.2 14.1s-14.2-6-14.2-14.1c0-8.2 6.2-14.1 14.2-14.1"/></svg>