<svg width="64" height="64" viewBox="0 0 64 64" fill="none" xmlns="http://www.w3.org/2000/svg">
  <defs>
    <radialGradient id="bgGlow" cx="0" cy="0" r="1" gradientUnits="userSpaceOnUse" gradientTransform="translate(20 18) rotate(54) scale(54)">
      <stop offset="0" stop-color="#5F73FF" stop-opacity="0.9"/>
      <stop offset="0.45" stop-color="#2A335C" stop-opacity="0.95"/>
      <stop offset="1" stop-color="#080A12"/>
    </radialGradient>
    <linearGradient id="ringLight" x1="12" y1="8" x2="56" y2="52" gradientUnits="userSpaceOnUse">
      <stop offset="0" stop-color="#FFFFFF" stop-opacity="0.82"/>
      <stop offset="0.48" stop-color="#9FA9FF" stop-opacity="0.36"/>
      <stop offset="1" stop-color="#4C556F" stop-opacity="0.18"/>
    </linearGradient>
    <linearGradient id="arcStroke" x1="20" y1="16" x2="52" y2="44" gradientUnits="userSpaceOnUse">
      <stop stop-color="#E8ECFF"/>
      <stop offset="1" stop-color="#9AA6FF"/>
    </linearGradient>
  </defs>

  <circle cx="32" cy="32" r="30" fill="url(#bgGlow)"/>
  <circle cx="32" cy="32" r="29" stroke="url(#ringLight)" stroke-width="2.2"/>
  <circle cx="32" cy="32" r="26" fill="#07090F" fill-opacity="0.4"/>

  <path d="M32 16c7.732 0 14 6.268 14 14 0 7.732-6.268 14-14 14-3.174 0-6.099-1.073-8.432-2.874" stroke="url(#arcStroke)" stroke-width="4" stroke-linecap="round" stroke-linejoin="round"/>
  <path d="M28.6 42.8c-3.737 0-7.109 2.07-8.866 5.316l-.315.584" stroke="#92A0FF" stroke-width="4" stroke-linecap="round"/>
  <path d="M43.6 18.4l-3.8 7.05c-.25.463-.91.562-1.304.199-2.273-2.094-5.295-3.295-8.496-3.295-5.983 0-11.01 4.085-12.372 9.648" stroke="url(#arcStroke)" stroke-width="4" stroke-linecap="round" stroke-linejoin="round"/>
  <circle cx="44" cy="18" r="3.6" fill="#FFFFFF" fill-opacity="0.92" stroke="#9DA9FF" stroke-width="1.2"/>
  <circle cx="24" cy="48" r="3.4" fill="#FFFFFF" fill-opacity="0.86" stroke="#9DA9FF" stroke-width="1.2"/>
</svg>
