<svg xmlns="http://www.w3.org/2000/svg" width="64" height="64" fill="none" viewBox="0 0 64 64"><defs><linearGradient id="b" x1="12" x2="56" y1="8" y2="52" gradientUnits="userSpaceOnUse"><stop offset="0" stop-color="#fff" stop-opacity=".82"/><stop offset=".48" stop-color="#9fa9ff" stop-opacity=".36"/><stop offset="1" stop-color="#4c556f" stop-opacity=".18"/></linearGradient><linearGradient id="c" x1="20" x2="52" y1="16" y2="44" gradientUnits="userSpaceOnUse"><stop stop-color="#e8ecff"/><stop offset="1" stop-color="#9aa6ff"/></linearGradient><radialGradient id="a" cx="0" cy="0" r="1" gradientTransform="rotate(54 -7.663 28.626)scale(54)" gradientUnits="userSpaceOnUse"><stop offset="0" stop-color="#5f73ff" stop-opacity=".9"/><stop offset=".45" stop-color="#2a335c" stop-opacity=".95"/><stop offset="1" stop-color="#080a12"/></radialGradient></defs><circle cx="32" cy="32" r="30" fill="url(#a)"/><circle cx="32" cy="32" r="29" stroke="url(#b)" stroke-width="2.2"/><circle cx="32" cy="32" r="26" fill="#07090f" fill-opacity=".4"/><path stroke="url(#c)" stroke-linecap="round" stroke-linejoin="round" stroke-width="4" d="M32 16c7.732 0 14 6.268 14 14s-6.268 14-14 14a13.75 13.75 0 0 1-8.432-2.874"/><path stroke="#92a0ff" stroke-linecap="round" stroke-width="4" d="M28.6 42.8c-3.737 0-7.109 2.07-8.866 5.316l-.315.584"/><path stroke="url(#c)" stroke-linecap="round" stroke-linejoin="round" stroke-width="4" d="m43.6 18.4-3.8 7.05c-.25.463-.91.562-1.304.199A12.53 12.53 0 0 0 30 22.354c-5.983 0-11.01 4.085-12.372 9.648"/><circle cx="44" cy="18" r="3.6" fill="#fff" fill-opacity=".92" stroke="#9da9ff" stroke-width="1.2"/><circle cx="24" cy="48" r="3.4" fill="#fff" fill-opacity=".86" stroke="#9da9ff" stroke-width="1.2"/></svg>